<svg xmlns="http://www.w3.org/2000/svg" viewBox="0 0 512 512"><path d="M130.2 127.5c.2 0 .1 0 0 0zM481.6 173c-10.6-25.5-32-53-48.9-61.7a253 253 0 0 1 24.8 74.4C429.8 116.8 383 89 344.9 28.7c-15-23.6-11-25.2-13-24.6h-.2c-46.7 26-75.3 78.4-82.6 122.8-16.6.9-32.9 5-48 12.1a6.5 6.5 0 0 0-3.6 7.3 7 7 0 0 0 1 2.3 6.2 6.2 0 0 0 2 1.7c.8.4 1.6.7 2.5.8a6.2 6.2 0 0 0 2.5-.3l.5-.2a118.7 118.7 0 0 1 49.5-11.4c62.9-.5 97.2 44 107.7 62.3a84.2 84.2 0 0 0-58.9-14.3c87.8 44 64.2 194.6-57.3 189.2-59.5-2.6-97.1-51-100.6-90.8 0 0 11.3-41.9 80.6-41.9 7.5 0 29-21 29.4-27-.1-2-42.6-18.9-59.1-35.2-8.9-8.7-13-12.9-16.8-16a70 70 0 0 0-6.3-4.8 113 113 0 0 1-.7-59.6 180.6 180.6 0 0 0-58.7 45.3h-.1c-9.7-12.2-9-52.6-8.4-61-.2-.6-7.3 3.6-8.2 4.3a209.9 209.9 0 0 0-79.3 121.7 309.8 309.8 0 0 0-6.8 52.2 244 244 0 0 0 244 244c120.6 0 223-87.3 240.4-202.7 11.5-76.7-14.8-131-14.8-132z"/></svg>