<svg xmlns="http://www.w3.org/2000/svg" viewBox="0 0 32 20"><g clip-path="url(#a)"><path d="M0 4V0h4v4H0zm0 16V8h4v12H0zm14 0h-4a3.9 3.9 0 0 1-2.8-1.2A3.9 3.9 0 0 1 6 16V4a3.9 3.9 0 0 1 1.2-2.8A3.9 3.9 0 0 1 10 0h4a3.9 3.9 0 0 1 2.8 1.2A3.9 3.9 0 0 1 18 4v12a3.9 3.9 0 0 1-1.2 2.8A3.9 3.9 0 0 1 14 20zm-4-4h4V4h-4v12zm10 4v-4h8v-4h-4a3.9 3.9 0 0 1-2.8-1.2A3.9 3.9 0 0 1 20 8V4a3.9 3.9 0 0 1 1.2-2.8A3.9 3.9 0 0 1 24 0h8v4h-8v4h4a3.9 3.9 0 0 1 2.8 1.2A3.9 3.9 0 0 1 32 12v4a3.9 3.9 0 0 1-1.2 2.8A3.9 3.9 0 0 1 28 20h-8z"/></g><defs><clipPath id="a"><path fill="#fff" d="M0 0h32v20H0z"/></clipPath></defs></svg>