<svg xmlns="http://www.w3.org/2000/svg" viewBox="0 0 56 20"><path d="M16.25 18h-4.84l-3.85-5.32h-1.3V18H2V2h6.11c3.53 0 6.4 2.4 6.4 5.35 0 1.8-1.1 3.4-2.77 4.39L16.25 18m-6-10.67a2.65 2.65 0 0 0-1.64-2.48c-.33-.13-.67-.2-1.03-.2H6.27V10h1.32a2.67 2.67 0 0 0 2.66-2.67z"/><path d="M27.64 11.73a6.56 6.56 0 0 1-1.1 3.65 6.55 6.55 0 0 1-2.92 2.43 6.56 6.56 0 0 1-3.8.39 6.55 6.55 0 0 1-3.36-1.78 6.56 6.56 0 0 1-1.44-7.15 6.56 6.56 0 0 1 2.4-2.95 6.55 6.55 0 0 1 3.65-1.11 6.54 6.54 0 0 1 6.57 6.52zM21.07 8.3c-1.13 0-2.09 1.54-2.09 3.43s.96 3.43 2.09 3.43c1.15 0 2.1-1.53 2.1-3.43s-.95-3.43-2.1-3.43zm16.58-2.83-4.91 4.92V5.46h-4.27V18h4.27v-5.1l5.13 5.1h5.37l-6.52-6.53 5.4-5.4v7.44c0 2.47 1.48 4.75 5.22 4.75 1.78 0 3.4-1 4.2-1.92L53.46 18h.9V5.47h-4.25v8.12c-.48.83-1.15 1.36-2.19 1.36-1.05 0-1.53-.62-1.53-2.61V5.47h-8.74z"/></svg>