<svg xmlns="http://www.w3.org/2000/svg" viewBox="0 0 40 20"><path d="M11.2 4.5c.5-.7 1-1.7.8-2.7a3.8 3.8 0 0 0-2.5 1.3c-.5.6-1 1.6-.9 2.5 1 .1 2-.4 2.6-1.1zm.8 1.3c-1.4 0-2.6.8-3.2.8S7 5.9 6 5.9c-1.4 0-2.8.8-3.5 2-1.5 2.6-.4 6.3 1 8.4.8 1 1.6 2 2.7 2s1.5-.6 2.8-.6 1.7.6 2.8.6c1.2 0 1.9-1 2.6-2 .8-1.2 1.1-2.3 1.2-2.3 0 0-2.3-.9-2.3-3.4 0-2 1.7-3 1.8-3.1a4 4 0 0 0-3-1.7zM22.8 3v2.9h2.4v1.9h-2.4v7c0 1 .5 1.6 1.5 1.6a8 8 0 0 0 .9-.1v1.9a7 7 0 0 1-1.4.1c-2.5 0-3.4-1-3.4-3.3V7.8h-1.9V5.9h1.9v-3h2.4zm10.8 15.2H31L26.4 6H29l3.3 10 3.3-10h2.5l-4.5 12.3z"/></svg>