<svg xmlns="http://www.w3.org/2000/svg" fill="none" viewBox="0 0 128 128"><style>.B{fill-rule:evenodd}.C{fill:#ff8702}.D{stroke-miterlimit:4.12}.E{stroke-linecap:round}.F{stroke-linejoin:round}</style><g clip-path="url(#C)"><g class="B"><path d="M105.22 62.64H19.85c0-15.61 6.19-29.58 15.93-38.63 3.68-3.43 9.67-5.96 14.04-4.8.39-.2-8.25-2.58-7.9-2.8 3.16-1.9 9.22-.68 14.64 1.3a26.28 26.28 0 0 1-7.99-8.9 29.19 29.19 0 0 1 19.3 6l-1.5-5.54c4.53 3 13.02 7.43 17.58 10.5 12.72 8.59 21.27 24.57 21.27 42.87z" class="C"/><path fill="#313131" d="M100.9 4.64c-2.97-1.57-21.2 5.1-28.6 17.48 3.3 4.65 10.3 3.98 14.65 2.88.14 1.86-.46 3.72-.6 5.35 1.36.52 1.8.57 4.02-.04.91 3.27 1.09 7.45 5.75 8.27 6.32-10.95 8.07-32.21 4.78-33.94zm-76.95.08c2.97-1.57 21.22 5.11 28.63 17.5-3.3 4.66-10.55 4.19-15.07 1.45.04 2.6.44 4.14 1.31 5.61a8.92 8.92 0 0 1-4.68-.62c1.02 2.94-.74 9.22-5.4 10.04-6.33-10.96-8.08-32.25-4.8-33.98z"/></g><mask id="A" width="31" height="35" x="72" y="4" maskUnits="userSpaceOnUse"><path fill="#fff" d="M100.82 4.72c-2.97-1.56-21.2 5.11-28.6 17.48 3.3 4.66 10.3 3.99 14.64 2.9.15 1.84-.45 3.7-.6 5.33 1.36.53 1.8.58 4.02-.03.91 3.26 1.1 7.44 5.75 8.26 6.32-10.95 8.08-32.2 4.79-33.94z"/></mask><g class="B" mask="url(#A)"><path fill="#ebdccc" d="M98.98 7.3c-1.09-.51-6.7 1.78-9.85 4.68-6.4 5.9-.65 13.81-17.21 12.69 3.66 8.99 11.63 12.36 21.18 14.63-1.63-11.33 5.62-11.9 6.66-24.04.39-4.58.09-7.54-.78-7.96z"/></g><mask id="B" width="31" height="35" x="22" y="4" maskUnits="userSpaceOnUse"><path fill="#fff" d="M24.03 4.8c2.98-1.56 21.23 5.12 28.64 17.5-3.3 4.66-10.55 4.2-15.07 1.46.03 2.6.44 4.13 1.3 5.61a8.92 8.92 0 0 1-4.68-.63c1.03 2.94-.73 9.22-5.4 10.05C22.5 27.81 20.75 6.53 24.04 4.8z"/></mask><g class="B" mask="url(#B)"><path fill="#ebdccc" d="M25.96 7.47c1.09-.51 6.7 1.78 9.86 4.69 6.41 5.9.65 13.83 17.23 12.7-3.66 9-11.64 12.38-21.2 14.64 1.63-11.34-5.63-11.9-6.67-24.06-.39-4.59-.09-7.55.78-7.97z"/></g><path fill="#313131" d="M48.78 48.33c3.13-1.5 4.68-5.75 3.46-9.5s-4.74-5.54-7.86-4.04-4.68 5.75-3.47 9.49 4.74 5.55 7.87 4.04zm29.82.33c2.98-1.42 4.45-5.47 3.3-9.02s-4.51-5.28-7.5-3.86-4.44 5.47-3.29 9.03 4.51 5.28 7.5 3.85z"/><g stroke="#000" stroke-width="5" class="D"><path fill="#ad7e52" d="M14.06 54.3v29.99H3.53l10.53-30z" class="B"/><path fill="#eacb99" d="M70.34 56.04H14.21v69.46h56.13V56.04zm44.38 0H72.95v69.46h41.77V56.04z"/></g><path fill="#ab8259" d="M72.95 56.04h41.77v69.46H72.95v-6.2c16.98-2 14.88-.84 24.9-6.33 2.8-1.53 4.96-2.22 5.11-3.53.74-6.08 6.72-4.72 6.67-9.28-.04-3.44-3.07-4.42-6.25-6.28-3.86-2.25-6.26-4.3-16.56-3.13-5.52.62-7.49.6-7.6-2.81-.3-9.48-2.42-10.14-6.27-15.7v-16.2z" class="B"/><path fill="#eacb99" stroke="#000" stroke-width="5.13" d="M115.43 55.99H73.66l9.23 28.6h41.76l-9.22-28.6z" class="D"/><g class="B"><path fill="#aa8259" d="M104.94 55.99h10.49l9.22 28.6H99.9c19.98-10.31 10.9-23.12 5.04-28.6z"/><path fill="#ab8259" d="M70.34 108.99v16.51H53.82c8.32-2.58 13.52-7.6 16.52-16.51zM43 125.5H14.2v-6.48c28 1.43 17.74 1.26 28.78 6.48z"/></g><path d="M31.32 52.55c3.67 16.33 15 15.98 15.22.16l-15.22-.15z" class="C"/><path stroke="#313131" stroke-width="4" d="M31.32 52.55c3.67 16.33 15 15.98 15.22.16" class="E F"/><path d="M59.62 52.55c.32 15.67 11.53 18.73 16.28.16l-16.28-.15z" class="C"/><path stroke="#313131" stroke-width="4" d="M59.62 52.55c.32 15.67 11.53 18.73 16.28.16" class="E F"/><g stroke="#98594d" stroke-width="5"><circle cx="29.46" cy="86.1" r="4.98" transform="rotate(336 29.46 86.1)"/><circle cx="37.1" cy="103.54" r="4.98" transform="rotate(336 37.1 103.54)"/><circle cx="46.9" cy="78.46" r="4.98" transform="rotate(336 46.9 78.46)"/><circle cx="54.54" cy="95.9" r="4.98" transform="rotate(336 54.54 95.9)"/></g></g><defs><clipPath id="C"><path fill="#fff" d="M0 0h128v128H0z"/></clipPath></defs></svg>